<svg width="131" height="131" viewBox="0 0 131 131" fill="none" xmlns="http://www.w3.org/2000/svg">
<g id="ram-memory 1" clip-path="url(#clip0_16_8)">
<g id="Group">
<g id="Group_2">
<g id="Group_3">
<g id="Group_4">
<g id="Group_5">
<g id="Group_6">
<g id="Group_7">
<g id="Group_8">
<g id="Group_9">
<g id="Group_10">
<g id="Group_11">
<g id="Group_12">
<g id="Group_13">
<g id="Group_14">
<g id="Group_15">
<g id="Group_16">
<g id="Group_17">
<g id="Group_18">
<g id="Group_19">
<g id="Group_20">
<g id="Group_21">
<g id="Group_22">
<g id="Group_23">
<g id="Group_24">
<path id="Vector" d="M99.1 104.992H32.0106C25.8895 104.992 20.9099 100.013 20.9099 93.8915V36.9615C20.9099 30.8403 25.8895 25.8608 32.0106 25.8608H99.0995C105.221 25.8608 110.2 30.8403 110.2 36.9615V93.892C110.201 100.013 105.221 104.992 99.1 104.992ZM32.0106 33.2613C29.9706 33.2613 28.3104 34.9209 28.3104 36.9615V93.892C28.3104 95.9325 29.9706 97.5922 32.0106 97.5922H99.0995C101.14 97.5922 102.8 95.9325 102.8 93.892V36.9615C102.8 34.9209 101.14 33.2613 99.0995 33.2613H32.0106Z" fill="#000002"/>
</g>
</g>
</g>
</g>
</g>
</g>
</g>
</g>
</g>
</g>
</g>
</g>
</g>
</g>
</g>
</g>
</g>
</g>
</g>
</g>
</g>
</g>
</g>
<g id="Group_25">
<g id="Group_26">
<g id="Group_27">
<g id="Group_28">
<g id="Group_29">
<g id="Group_30">
<g id="Group_31">
<g id="Group_32">
<g id="Group_33">
<g id="Group_34">
<g id="Group_35">
<g id="Group_36">
<g id="Group_37">
<g id="Group_38">
<g id="Group_39">
<g id="Group_40">
<g id="Group_41">
<g id="Group_42">
<g id="Group_43">
<g id="Group_44">
<g id="Group_45">
<g id="Group_46">
<g id="Group_47">
<g id="Group_48">
<path id="Vector_2" d="M37.918 32.8439C35.8745 32.8439 34.2178 31.1871 34.2178 29.1436V8.3438C34.2178 6.30028 35.8745 4.64355 37.918 4.64355C39.9615 4.64355 41.6183 6.30028 41.6183 8.3438V29.1436C41.6183 31.1871 39.9615 32.8439 37.918 32.8439Z" fill="#000002"/>
</g>
</g>
</g>
</g>
</g>
</g>
</g>
</g>
</g>
</g>
</g>
</g>
</g>
</g>
</g>
</g>
</g>
</g>
</g>
</g>
</g>
</g>
</g>
<g id="Group_49">
<g id="Group_50">
<g id="Group_51">
<g id="Group_52">
<g id="Group_53">
<g id="Group_54">
<g id="Group_55">
<g id="Group_56">
<g id="Group_57">
<g id="Group_58">
<g id="Group_59">
<g id="Group_60">
<g id="Group_61">
<g id="Group_62">
<g id="Group_63">
<g id="Group_64">
<g id="Group_65">
<g id="Group_66">
<g id="Group_67">
<g id="Group_68">
<g id="Group_69">
<g id="Group_70">
<g id="Group_71">
<path id="Vector_3" d="M56.3428 32.8439C54.2993 32.8439 52.6426 31.1871 52.6426 29.1436V8.3438C52.6426 6.30028 54.2993 4.64355 56.3428 4.64355C58.3863 4.64355 60.0431 6.30028 60.0431 8.3438V29.1436C60.0431 31.1871 58.3863 32.8439 56.3428 32.8439Z" fill="#000002"/>
</g>
</g>
</g>
</g>
</g>
</g>
</g>
</g>
</g>
</g>
</g>
</g>
</g>
</g>
</g>
</g>
</g>
</g>
</g>
</g>
</g>
</g>
</g>
<g id="Group_72">
<g id="Group_73">
<g id="Group_74">
<g id="Group_75">
<g id="Group_76">
<g id="Group_77">
<g id="Group_78">
<g id="Group_79">
<g id="Group_80">
<g id="Group_81">
<g id="Group_82">
<g id="Group_83">
<g id="Group_84">
<g id="Group_85">
<g id="Group_86">
<g id="Group_87">
<g id="Group_88">
<g id="Group_89">
<g id="Group_90">
<g id="Group_91">
<g id="Group_92">
<g id="Group_93">
<g id="Group_94">
<path id="Vector_4" d="M74.7681 32.8439C72.7246 32.8439 71.0679 31.1871 71.0679 29.1436V8.3438C71.0679 6.30028 72.7246 4.64355 74.7681 4.64355C76.8116 4.64355 78.4684 6.30028 78.4684 8.3438V29.1436C78.4684 31.1871 76.8116 32.8439 74.7681 32.8439Z" fill="#000002"/>
</g>
</g>
</g>
</g>
</g>
</g>
</g>
</g>
</g>
</g>
</g>
</g>
</g>
</g>
</g>
</g>
</g>
</g>
</g>
</g>
</g>
</g>
</g>
<g id="Group_95">
<g id="Group_96">
<g id="Group_97">
<g id="Group_98">
<g id="Group_99">
<g id="Group_100">
<g id="Group_101">
<g id="Group_102">
<g id="Group_103">
<g id="Group_104">
<g id="Group_105">
<g id="Group_106">
<g id="Group_107">
<g id="Group_108">
<g id="Group_109">
<g id="Group_110">
<g id="Group_111">
<g id="Group_112">
<g id="Group_113">
<g id="Group_114">
<g id="Group_115">
<g id="Group_116">
<g id="Group_117">
<path id="Vector_5" d="M93.1922 32.8439C91.1487 32.8439 89.4919 31.1871 89.4919 29.1436V8.3438C89.4919 6.30028 91.1487 4.64355 93.1922 4.64355C95.2357 4.64355 96.8924 6.30028 96.8924 8.3438V29.1436C96.8924 31.1871 95.2357 32.8439 93.1922 32.8439Z" fill="#000002"/>
</g>
</g>
</g>
</g>
</g>
</g>
</g>
</g>
</g>
</g>
</g>
</g>
</g>
</g>
</g>
</g>
</g>
</g>
</g>
</g>
</g>
</g>
</g>
</g>
<g id="Group_118">
<g id="Group_119">
<g id="Group_120">
<g id="Group_121">
<g id="Group_122">
<g id="Group_123">
<g id="Group_124">
<g id="Group_125">
<g id="Group_126">
<g id="Group_127">
<g id="Group_128">
<g id="Group_129">
<g id="Group_130">
<g id="Group_131">
<g id="Group_132">
<g id="Group_133">
<g id="Group_134">
<g id="Group_135">
<g id="Group_136">
<g id="Group_137">
<g id="Group_138">
<g id="Group_139">
<g id="Group_140">
<g id="Group_141">
<path id="Vector_6" d="M127.3 41.4891H106.501C104.457 41.4891 102.8 39.8324 102.8 37.7889C102.8 35.7453 104.457 34.0886 106.501 34.0886H127.3C129.343 34.0886 131 35.7453 131 37.7889C131 39.8324 129.343 41.4891 127.3 41.4891Z" fill="#000002"/>
</g>
</g>
</g>
</g>
</g>
</g>
</g>
</g>
</g>
</g>
</g>
</g>
</g>
</g>
</g>
</g>
</g>
</g>
</g>
</g>
</g>
</g>
</g>
<g id="Group_142">
<g id="Group_143">
<g id="Group_144">
<g id="Group_145">
<g id="Group_146">
<g id="Group_147">
<g id="Group_148">
<g id="Group_149">
<g id="Group_150">
<g id="Group_151">
<g id="Group_152">
<g id="Group_153">
<g id="Group_154">
<g id="Group_155">
<g id="Group_156">
<g id="Group_157">
<g id="Group_158">
<g id="Group_159">
<g id="Group_160">
<g id="Group_161">
<g id="Group_162">
<g id="Group_163">
<g id="Group_164">
<path id="Vector_7" d="M127.3 59.9143H106.501C104.457 59.9143 102.8 58.2576 102.8 56.2141C102.8 54.1706 104.457 52.5139 106.501 52.5139H127.3C129.343 52.5139 131 54.1706 131 56.2141C131 58.2576 129.343 59.9143 127.3 59.9143Z" fill="#000002"/>
</g>
</g>
</g>
</g>
</g>
</g>
</g>
</g>
</g>
</g>
</g>
</g>
</g>
</g>
</g>
</g>
</g>
</g>
</g>
</g>
</g>
</g>
</g>
<g id="Group_165">
<g id="Group_166">
<g id="Group_167">
<g id="Group_168">
<g id="Group_169">
<g id="Group_170">
<g id="Group_171">
<g id="Group_172">
<g id="Group_173">
<g id="Group_174">
<g id="Group_175">
<g id="Group_176">
<g id="Group_177">
<g id="Group_178">
<g id="Group_179">
<g id="Group_180">
<g id="Group_181">
<g id="Group_182">
<g id="Group_183">
<g id="Group_184">
<g id="Group_185">
<g id="Group_186">
<g id="Group_187">
<path id="Vector_8" d="M127.3 78.3391H106.501C104.457 78.3391 102.8 76.6824 102.8 74.6388C102.8 72.5953 104.457 70.9386 106.501 70.9386H127.3C129.343 70.9386 131 72.5953 131 74.6388C131 76.6824 129.343 78.3391 127.3 78.3391Z" fill="#000002"/>
</g>
</g>
</g>
</g>
</g>
</g>
</g>
</g>
</g>
</g>
</g>
</g>
</g>
</g>
</g>
</g>
</g>
</g>
</g>
</g>
</g>
</g>
</g>
<g id="Group_188">
<g id="Group_189">
<g id="Group_190">
<g id="Group_191">
<g id="Group_192">
<g id="Group_193">
<g id="Group_194">
<g id="Group_195">
<g id="Group_196">
<g id="Group_197">
<g id="Group_198">
<g id="Group_199">
<g id="Group_200">
<g id="Group_201">
<g id="Group_202">
<g id="Group_203">
<g id="Group_204">
<g id="Group_205">
<g id="Group_206">
<g id="Group_207">
<g id="Group_208">
<g id="Group_209">
<g id="Group_210">
<path id="Vector_9" d="M127.3 96.7633H106.501C104.457 96.7633 102.8 95.1066 102.8 93.0631C102.8 91.0196 104.457 89.3629 106.501 89.3629H127.3C129.343 89.3629 131 91.0196 131 93.0631C131 95.1066 129.343 96.7633 127.3 96.7633Z" fill="#000002"/>
</g>
</g>
</g>
</g>
</g>
</g>
</g>
</g>
</g>
</g>
</g>
</g>
</g>
</g>
</g>
</g>
</g>
</g>
</g>
</g>
</g>
</g>
</g>
</g>
<g id="Group_211">
<g id="Group_212">
<g id="Group_213">
<g id="Group_214">
<g id="Group_215">
<g id="Group_216">
<g id="Group_217">
<g id="Group_218">
<g id="Group_219">
<g id="Group_220">
<g id="Group_221">
<g id="Group_222">
<g id="Group_223">
<g id="Group_224">
<g id="Group_225">
<g id="Group_226">
<g id="Group_227">
<g id="Group_228">
<g id="Group_229">
<g id="Group_230">
<g id="Group_231">
<g id="Group_232">
<g id="Group_233">
<g id="Group_234">
<path id="Vector_10" d="M24.5001 41.4891H3.70024C1.65672 41.4891 0 39.8324 0 37.7889C0 35.7453 1.65672 34.0886 3.70024 34.0886H24.5001C26.5436 34.0886 28.2003 35.7453 28.2003 37.7889C28.2003 39.8324 26.5436 41.4891 24.5001 41.4891Z" fill="#000002"/>
</g>
</g>
</g>
</g>
</g>
</g>
</g>
</g>
</g>
</g>
</g>
</g>
</g>
</g>
</g>
</g>
</g>
</g>
</g>
</g>
</g>
</g>
</g>
<g id="Group_235">
<g id="Group_236">
<g id="Group_237">
<g id="Group_238">
<g id="Group_239">
<g id="Group_240">
<g id="Group_241">
<g id="Group_242">
<g id="Group_243">
<g id="Group_244">
<g id="Group_245">
<g id="Group_246">
<g id="Group_247">
<g id="Group_248">
<g id="Group_249">
<g id="Group_250">
<g id="Group_251">
<g id="Group_252">
<g id="Group_253">
<g id="Group_254">
<g id="Group_255">
<g id="Group_256">
<g id="Group_257">
<path id="Vector_11" d="M24.5001 59.9143H3.70024C1.65672 59.9143 0 58.2576 0 56.2141C0 54.1706 1.65672 52.5139 3.70024 52.5139H24.5001C26.5436 52.5139 28.2003 54.1706 28.2003 56.2141C28.2003 58.2576 26.5436 59.9143 24.5001 59.9143Z" fill="#000002"/>
</g>
</g>
</g>
</g>
</g>
</g>
</g>
</g>
</g>
</g>
</g>
</g>
</g>
</g>
</g>
</g>
</g>
</g>
</g>
</g>
</g>
</g>
</g>
<g id="Group_258">
<g id="Group_259">
<g id="Group_260">
<g id="Group_261">
<g id="Group_262">
<g id="Group_263">
<g id="Group_264">
<g id="Group_265">
<g id="Group_266">
<g id="Group_267">
<g id="Group_268">
<g id="Group_269">
<g id="Group_270">
<g id="Group_271">
<g id="Group_272">
<g id="Group_273">
<g id="Group_274">
<g id="Group_275">
<g id="Group_276">
<g id="Group_277">
<g id="Group_278">
<g id="Group_279">
<g id="Group_280">
<path id="Vector_12" d="M24.5001 78.3391H3.70024C1.65672 78.3391 0 76.6824 0 74.6388C0 72.5953 1.65672 70.9386 3.70024 70.9386H24.5001C26.5436 70.9386 28.2003 72.5953 28.2003 74.6388C28.2003 76.6824 26.5436 78.3391 24.5001 78.3391Z" fill="#000002"/>
</g>
</g>
</g>
</g>
</g>
</g>
</g>
</g>
</g>
</g>
</g>
</g>
</g>
</g>
</g>
</g>
</g>
</g>
</g>
</g>
</g>
</g>
</g>
<g id="Group_281">
<g id="Group_282">
<g id="Group_283">
<g id="Group_284">
<g id="Group_285">
<g id="Group_286">
<g id="Group_287">
<g id="Group_288">
<g id="Group_289">
<g id="Group_290">
<g id="Group_291">
<g id="Group_292">
<g id="Group_293">
<g id="Group_294">
<g id="Group_295">
<g id="Group_296">
<g id="Group_297">
<g id="Group_298">
<g id="Group_299">
<g id="Group_300">
<g id="Group_301">
<g id="Group_302">
<g id="Group_303">
<path id="Vector_13" d="M24.5001 96.7633H3.70024C1.65672 96.7633 0 95.1066 0 93.0631C0 91.0196 1.65672 89.3629 3.70024 89.3629H24.5001C26.5436 89.3629 28.2003 91.0196 28.2003 93.0631C28.2003 95.1066 26.5436 96.7633 24.5001 96.7633Z" fill="#000002"/>
</g>
</g>
</g>
</g>
</g>
</g>
</g>
</g>
</g>
</g>
</g>
</g>
</g>
</g>
</g>
</g>
</g>
</g>
</g>
</g>
</g>
</g>
</g>
</g>
<g id="Group_304">
<g id="Group_305">
<g id="Group_306">
<g id="Group_307">
<g id="Group_308">
<g id="Group_309">
<g id="Group_310">
<g id="Group_311">
<g id="Group_312">
<g id="Group_313">
<g id="Group_314">
<g id="Group_315">
<g id="Group_316">
<g id="Group_317">
<g id="Group_318">
<g id="Group_319">
<g id="Group_320">
<g id="Group_321">
<g id="Group_322">
<g id="Group_323">
<g id="Group_324">
<g id="Group_325">
<g id="Group_326">
<g id="Group_327">
<path id="Vector_14" d="M37.918 126.356C35.8745 126.356 34.2178 124.7 34.2178 122.656V101.856C34.2178 99.8129 35.8745 98.1561 37.918 98.1561C39.9615 98.1561 41.6183 99.8129 41.6183 101.856V122.656C41.6183 124.7 39.9615 126.356 37.918 126.356Z" fill="#000002"/>
</g>
</g>
</g>
</g>
</g>
</g>
</g>
</g>
</g>
</g>
</g>
</g>
</g>
</g>
</g>
</g>
</g>
</g>
</g>
</g>
</g>
</g>
</g>
<g id="Group_328">
<g id="Group_329">
<g id="Group_330">
<g id="Group_331">
<g id="Group_332">
<g id="Group_333">
<g id="Group_334">
<g id="Group_335">
<g id="Group_336">
<g id="Group_337">
<g id="Group_338">
<g id="Group_339">
<g id="Group_340">
<g id="Group_341">
<g id="Group_342">
<g id="Group_343">
<g id="Group_344">
<g id="Group_345">
<g id="Group_346">
<g id="Group_347">
<g id="Group_348">
<g id="Group_349">
<g id="Group_350">
<path id="Vector_15" d="M56.3428 126.356C54.2993 126.356 52.6426 124.7 52.6426 122.656V101.856C52.6426 99.8129 54.2993 98.1561 56.3428 98.1561C58.3863 98.1561 60.0431 99.8129 60.0431 101.856V122.656C60.0431 124.7 58.3863 126.356 56.3428 126.356Z" fill="#000002"/>
</g>
</g>
</g>
</g>
</g>
</g>
</g>
</g>
</g>
</g>
</g>
</g>
</g>
</g>
</g>
</g>
</g>
</g>
</g>
</g>
</g>
</g>
</g>
<g id="Group_351">
<g id="Group_352">
<g id="Group_353">
<g id="Group_354">
<g id="Group_355">
<g id="Group_356">
<g id="Group_357">
<g id="Group_358">
<g id="Group_359">
<g id="Group_360">
<g id="Group_361">
<g id="Group_362">
<g id="Group_363">
<g id="Group_364">
<g id="Group_365">
<g id="Group_366">
<g id="Group_367">
<g id="Group_368">
<g id="Group_369">
<g id="Group_370">
<g id="Group_371">
<g id="Group_372">
<g id="Group_373">
<path id="Vector_16" d="M74.7681 126.356C72.7246 126.356 71.0679 124.7 71.0679 122.656V101.856C71.0679 99.8129 72.7246 98.1561 74.7681 98.1561C76.8116 98.1561 78.4684 99.8129 78.4684 101.856V122.656C78.4684 124.7 76.8116 126.356 74.7681 126.356Z" fill="#000002"/>
</g>
</g>
</g>
</g>
</g>
</g>
</g>
</g>
</g>
</g>
</g>
</g>
</g>
</g>
</g>
</g>
</g>
</g>
</g>
</g>
</g>
</g>
</g>
<g id="Group_374">
<g id="Group_375">
<g id="Group_376">
<g id="Group_377">
<g id="Group_378">
<g id="Group_379">
<g id="Group_380">
<g id="Group_381">
<g id="Group_382">
<g id="Group_383">
<g id="Group_384">
<g id="Group_385">
<g id="Group_386">
<g id="Group_387">
<g id="Group_388">
<g id="Group_389">
<g id="Group_390">
<g id="Group_391">
<g id="Group_392">
<g id="Group_393">
<g id="Group_394">
<g id="Group_395">
<g id="Group_396">
<path id="Vector_17" d="M93.1922 126.356C91.1487 126.356 89.4919 124.7 89.4919 122.656V101.856C89.4919 99.8129 91.1487 98.1561 93.1922 98.1561C95.2357 98.1561 96.8924 99.8129 96.8924 101.856V122.656C96.8924 124.7 95.2357 126.356 93.1922 126.356Z" fill="#000002"/>
</g>
</g>
</g>
</g>
</g>
</g>
</g>
</g>
</g>
</g>
</g>
</g>
</g>
</g>
</g>
</g>
</g>
</g>
</g>
</g>
</g>
</g>
</g>
</g>
</g>
</g>
<defs>
<clipPath id="clip0_16_8">
<rect width="131" height="131" fill="white"/>
</clipPath>
</defs>
</svg>
